# AST/ASF file generated using VICON BodyLanguage
# -----------------------------------------------
:version 1.10
:name VICON
:units
  mass 1.0
  length 0.45
  angle deg
:documentation
   .ast/.asf automatically generated from VICON data using
   VICON BodyBuilder and BodyLanguage model FoxedUp or BRILLIANT.MOD
:root
   order TX TY TZ RX RY RZ
   axis XYZ
   position 0 0 0  
   orientation 0 0 0 
:bonedata
  begin
     id 1 
     name lhipjoint
     direction 0.645893 -0.654526 0.392961 
     length 2.38111 
     axis 0 0 0  XYZ
  end
  begin
     id 2 
     name lfemur
     direction 0.34202 -0.939693 0  
     length 6.6822  
     axis 0 0 20  XYZ
    dof rx ry rz
    limits (-160.0 20.0)
           (-70.0 70.0)
           (-60.0 70.0)
  end
  begin
     id 3 
     name ltibia
     direction 0.34202 -0.939693 0   
     length 6.93904   
     axis 0 0 20   XYZ
    dof rx
    limits (-10.0 170.0)
  end
  begin
     id 4 
     name lfoot
     direction 0.0694967 -0.190941 0.979138   
     length 2.13616   
     axis -90 7.62852e-016 20   XYZ
    dof rx rz
    limits (-45.0 90.0)
           (-70.0 20.0)
  end
  begin
     id 5 
     name ltoes
     direction 1.535e-011 -4.2202e-011 1   
     length 1.07536   
     axis -90 7.62852e-016 20   XYZ
    dof rx
    limits (-90.0 20.0)
  end
  begin
     id 6 
     name rhipjoint
     direction -0.700219 -0.612087 0.367481   
     length 2.54621  
     axis 0 0 0  XYZ 
  end
  begin
     id 7 
     name rfemur
     direction -0.34202 -0.939693 0   
     length 6.55353   
     axis 0 0 -20   XYZ
    dof rx ry rz
    limits (-160.0 20.0)
           (-70.0 70.0)
           (-70.0 60.0)
  end
  begin
     id 8 
     name rtibia
     direction -0.34202 -0.939693 0   
     length 6.8736   
     axis 0 0 -20   XYZ
    dof rx
    limits (-10.0 170.0)
 end
 begin
     id 9 
     name rfoot
     direction -0.0679995 -0.186827 0.980037   
     length 2.1218  
     axis -90 -7.62852e-016 -20   XYZ
    dof rx rz
    limits (-45.0 90.0)
           (-20.0 70.0)
  end
  begin
     id 10 
     name rtoes
     direction -1.53589e-011 -4.21772e-011 1   
     length 1.06864   
     axis -90 -7.62852e-016 -20   XYZ
    dof rx
    limits (-90.0 20.0)
  end
  begin
     id 11 
     name lowerback
     direction -0.0416607 0.996347 -0.0745409   
     length 2.12205   
     axis 0 0 0   XYZ
    dof rx ry rz
    limits (-20.0 45.0)
           (-30.0 30.0)
           (-30.0 30.0)
  end
  begin
     id 12 
     name upperback
     direction -0.000153993 0.999276 -0.0380568   
     length 2.12759   
     axis 0 0 0   XYZ
    dof rx ry rz
    limits (-20.0 45.0)
           (-30.0 30.0)
           (-30.0 30.0)
  end
  begin
     id 13 
     name thorax
     direction 0.0187671 0.999821 -0.00241421   
     length 2.13704   
     axis 0 0 0   XYZ
    dof rx ry rz
    limits (-20.0 45.0)
           (-30.0 30.0)
           (-30.0 30.0)
  end
  begin
     id 14 
     name lowerneck
     direction 0.0268157 0.964865 0.261374   
     length 1.65253   
     axis 0 0 0   XYZ
    dof rx ry rz
    limits (-20.0 45.0)
           (-30.0 30.0)
           (-30.0 30.0)
  end
  begin
     id 15 
     name upperneck
     direction 0.00263774 0.939908 -0.341418   
     length 1.72375   
     axis 0 0 0   XYZ
    dof rx ry rz
    limits (-20.0 45.0)
           (-30.0 30.0)
           (-30.0 30.0)
  end
  begin
     id 16
     name head
     direction -0.00526001 0.989001 -0.147818  
     length 1.74878  
     axis 0 0 0   XYZ
    dof rx ry rz
    limits (-20.0 45.0)
           (-30.0 30.0)
           (-30.0 30.0)
  end
  begin
     id 17 
     name lclavicle
     direction 0.881214 0.461162 -0.103884  
     length 3.25108  
     axis 0 0 0   XYZ
    dof ry rz
    limits (-20.0 10.0)
           (0.0 20.0)
  end
  begin
     id 18 
     name lhumerus
     direction 1 -4.4899e-011 3.38092e-027   
     length 4.87408   
     axis 180 -30 -90   XYZ
    dof rx ry rz
    limits (-60.0 90.0)
           (-90.0 90.0)
           (-90.0 90.0)
  end
  begin
     id 19
     name lradius
     direction 1 -4.48931e-011 9.96288e-027   
     length 2.76729   
     axis 180 -30 -90   XYZ
    dof rx
    limits (-10.0 170.0)
  end
  begin
     id 20
     name lwrist
     direction 1 -4.4896e-011 1.50617e-026   
     length 1.38364   
     axis -9.31234e-015 90 90   XYZ
    dof ry
    limits (-180.0 0.0)
 end
  begin
     id 21 
     name lhand
     direction 1 -4.49038e-011 3.01286e-026   
     length 0.98922   
     axis -1.92217e-014 90 90   XYZ
    dof rx rz
    limits (-90.0 90.0)
           (-45.0 45.0)
  end
  begin
     id 22 
     name lfingers
     direction 1 -4.49051e-011 6.02588e-026   
     length 0.797535   
     axis -3.84436e-014 90 90   XYZ
    dof rx
    limits (0.0 90.0)
  end
  begin
     id 23
     name lthumb
     direction 0.707107 -6.34901e-011 0.707107   
     length 1.14511   
     axis -90 45 2.19363e-014   XYZ
    dof rx rz
    limits (-45.0 45.0)
           (-45.0 45.0)
  end
  begin
     id 24 
     name rclavicle
     direction -0.893894 0.441652 -0.0767889   
     length 3.29361  
     axis 0 0 0   XYZ 
    dof ry rz
    limits (-10.0 20.0)
           (-20.0 0.0)
  end
  begin
     id 25 
     name rhumerus
     direction -1 -4.48945e-011 8.0491e-028  
     length 4.71404   
     axis 180 30 90   XYZ
    dof rx ry rz
    limits (-90.0 60.0)
           (-90.0 90.0)
           (-90.0 90.0)
  end
  begin
     id 26 
     name rradius
     direction -1 -4.48986e-011 9.27795e-027   
     length 2.83468   
     axis 180 30 90   XYZ
    dof rx
    limits (-10.0 170.0)
  end
  begin
     id 27 
     name rwrist
     direction -1 -4.49029e-011 1.5064e-026   
     length 1.41734   
     axis -9.31234e-015 -90 -90   XYZ
    dof ry
    limits (-180.0 0.0)
  end
  begin
     id 28
     name rhand
     direction -1 -4.48857e-011 3.01165e-026   
     length 0.868195   
     axis -1.92217e-014 -90 -90   XYZ
    dof rx rz
    limits (-90.0 90.0)
           (-45.0 45.0)
  end
  begin
     id 29
     name rfingers
     direction -1 -4.49048e-011 6.02585e-026   
     length 0.699961   
     axis -3.84436e-014 -90 -90   XYZ
    dof rx
    limits (0.0 90.0)
  end
  begin
     id 30
     name rthumb
     direction -0.707107 -6.34854e-011 0.707107   
     length 1.00501   
     axis -90 -45 -2.19363e-014   XYZ
    dof rx rz
    limits (-45.0 45.0)
           (-45.0 45.0)
  end
:hierarchy
  begin
    root lhipjoint rhipjoint lowerback
    lhipjoint lfemur
    lfemur ltibia
    ltibia lfoot
    lfoot ltoes
    rhipjoint rfemur
    rfemur rtibia
    rtibia rfoot
    rfoot rtoes
    lowerback upperback
    upperback thorax
    thorax lowerneck lclavicle rclavicle
    lowerneck upperneck
    upperneck head
    lclavicle lhumerus
    lhumerus lradius
    lradius lwrist
    lwrist lhand lthumb
    lhand lfingers
    rclavicle rhumerus
    rhumerus rradius
    rradius rwrist
    rwrist rhand rthumb
    rhand rfingers
  end

#!OML:ASF H:\ManfredObstacles\Project 1\Capture day 2\Session 1\male.ASF
:FULLY-SPECIFIED
:DEGREES
83
root 1.24101 16.0299 9.72945 -166.093 -13.9132 174.195
lowerback 2.96232 -3.99203 -6.81561
upperback 1.85749 -5.58966 -0.753067
thorax 0.833486 -2.90631 3.11368
lowerneck -36.9596 -0.157615 -1.34556
upperneck 42.0861 -4.48484 3.25146
head 26.5254 -2.11384 0.354179
rclavicle -2.16675e-014 -1.98785e-015
rhumerus -62.9907 6.87405 -65.8429
rradius 53.3407
rwrist 5.63813
rhand -14.3987 -7.8313
rfingers 7.12502
rthumb 11.7447 -37.482
lclavicle -2.16675e-014 -1.98785e-015
lhumerus -32.3896 -35.299 74.4357
lradius 89.6563
lwrist -21.7659
lhand -19.1479 6.91655
lfingers 7.12502
lthumb 7.16242 36.7753
rfemur -71.232 -7.93242 13.753
rtibia 80.998
rfoot -7.10282 -24.0246
rtoes -20.5833
lfemur -0.113717 -8.59938 -24.4158
ltibia 25.9158
lfoot 9.17762 3.64412
ltoes -19.2282
84
root 1.26543 16.202 9.38222 -165.833 -14.413 173.992
lowerback 2.78285 -4.50159 -6.98423
upperback 1.72195 -6.25017 -0.500696
thorax 0.910397 -3.23342 3.45205
lowerneck -36.73 0.352994 -1.00062
upperneck 42.3279 -3.7382 2.78514
head 26.6023 -1.90331 0.2371
rclavicle 2.99171e-014 -1.43125e-014
rhumerus -64.2167 7.85753 -64.6134
rradius 54.5189
rwrist 4.78752
rhand -14.0775 -7.79832
rfingers 7.12502
rthumb 12.0544 -37.4311
lclavicle 2.99171e-014 -1.43125e-014
lhumerus -32.9654 -36.3747 73.4046
lradius 90.1988
lwrist -21.3569
lhand -19.0556 7.03337
lfingers 7.12502
lthumb 7.25146 36.8891
rfemur -71.6515 -7.73389 12.7716
rtibia 77.6414
rfoot -4.96397 -23.3741
rtoes -20.452
lfemur 2.26026 -8.53158 -24.1183
ltibia 21.8738
lfoot 12.8769 0.67952
ltoes -18.3572
85
root 1.28881 16.3723 9.03199 -165.58 -14.8856 173.811
lowerback 2.57787 -4.98841 -7.1181
upperback 1.57264 -6.87819 -0.254414
thorax 0.987944 -3.54382 3.75805
lowerneck -36.4554 0.858164 -0.625294
upperneck 42.5628 -3.01259 2.29574
head 26.6703 -1.69893 0.0894458
rclavicle -9.86966e-014 -5.56597e-015
rhumerus -65.433 8.86544 -63.4785
rradius 55.7767
rwrist 4.10221
rhand -13.7555 -7.68498
rfingers 7.12502
rthumb 12.3648 -37.2993
lclavicle -9.86966e-014 -5.56597e-015
lhumerus -33.6838 -37.493 72.4393
lradius 90.7546
lwrist -20.849
lhand -18.9471 7.12295
lfingers 7.12502
lthumb 7.3562 36.9751
rfemur -71.8329 -7.53779 11.8028
rtibia 74.1428
rfoot -2.59818 -22.7196
rtoes -20.211
lfemur 4.69998 -8.35815 -23.7875
ltibia 17.6708
lfoot 17.1246 -1.8028
ltoes -16.6651
86
root 1.31063 16.5392 8.67972 -165.315 -15.3533 173.674
lowerback 2.32632 -5.46104 -7.17874
upperback 1.40086 -7.48231 -0.00517958
thorax 1.06408 -3.84081 4.01843
lowerneck -36.1188 -1.61091 1.97801
upperneck 42.8958 -0.544694 -0.0427098
head 26.7198 1.14626 -0.105879
rclavicle 5.64548e-014 1.27222e-014
rhumerus -66.65 9.91648 -62.439
rradius 57.1044
rwrist 3.5133
rhand -13.4162 -7.48406
rfingers 7.12502
rthumb 12.692 -37.0784
lclavicle 5.64548e-014 1.27222e-014
lhumerus -34.5183 -38.6422 71.545
lradius 91.3172
lwrist -20.3659
lhand -18.8289 7.14118
lfingers 7.12502
lthumb 7.47028 36.9893
rfemur -71.8173 -7.36193 10.8751
rtibia 70.5335
rfoot -0.152708 -22.1019
rtoes -19.8048
lfemur 7.27217 -8.14347 -23.4099
ltibia 13.1789
lfoot 21.7305 -3.73313
ltoes -14.1769
87
root 1.33014 16.7007 8.32651 -165.035 -15.811 173.596
lowerback 1.99618 -5.91222 -7.13888
upperback 1.22399 -8.05021 0.24765
thorax 1.16678 -4.11959 4.21452
lowerneck -35.7285 -1.25365 2.43507
upperneck 43.0989 0.211803 -0.638102
head 26.8074 1.4282 -0.30146
rclavicle 1.1619e-013 2.98177e-015
rhumerus -67.84 10.9792 -61.488
rradius 58.4683
rwrist 2.9714
rhand -13.0613 -7.23112
rfingers 7.12502
rthumb 13.0341 -36.8039
lclavicle 1.1619e-013 2.98177e-015
lhumerus -35.4041 -39.8307 70.7057
lradius 91.8959
lwrist -19.9159
lhand -18.7224 7.05573
lfingers 7.12502
lthumb 7.5731 36.9001
rfemur -71.6465 -7.2205 10.0274
rtibia 66.8464
rfoot 2.27675 -21.5555
rtoes -19.253
lfemur 10.2395 -7.78777 -22.9646
ltibia 7.90928
lfoot 26.5866 -5.35586
ltoes -11.1842
